<!--?xml version="1.0" standalone="no"?-->
              <svg id="sw-js-blob-svg" viewBox="0 0 100 100" xmlns="http://www.w3.org/2000/svg" version="1.1">
                    <defs> 
                        <linearGradient id="sw-gradient" x1="0" x2="1" y1="1" y2="0">
                            <stop id="stop1" stop-color="rgba(130.986, 126.734, 0, 1)" offset="0%"></stop>
                            <stop id="stop2" stop-color="rgba(255, 236.771, 206.681, 1)" offset="100%"></stop>
                        </linearGradient>
                    </defs>
                <path fill="url(#sw-gradient)" d="M17,-29C22.7,-26.2,28.3,-22.9,28.8,-18C29.2,-13.1,24.5,-6.5,22.6,-1.1C20.6,4.3,21.5,8.6,21.8,14.9C22.1,21.1,21.9,29.3,18.2,32.7C14.4,36.2,7.2,34.9,0.4,34.3C-6.5,33.6,-13,33.7,-16.9,30.3C-20.8,27,-22.1,20.2,-23.6,14.6C-25.2,9,-27,4.5,-27.5,-0.3C-28,-5.1,-27.3,-10.2,-26.1,-16.5C-24.9,-22.8,-23.3,-30.2,-18.9,-33.7C-14.5,-37.1,-7.2,-36.6,-0.8,-35.3C5.7,-33.9,11.4,-31.7,17,-29Z" width="100%" height="100%" transform="translate(50 50)" stroke-width="0" style="transition: all 0.3s ease 0s;" stroke="url(#sw-gradient)"></path>
              </svg>