<!--?xml version="1.0" standalone="no"?-->
              <svg id="sw-js-blob-svg" viewBox="0 0 100 100" xmlns="http://www.w3.org/2000/svg" version="1.1">
                    <defs> 
                        <linearGradient id="sw-gradient" x1="0" x2="1" y1="1" y2="0">
                            <stop id="stop1" stop-color="rgba(115.991, 255, 84.31, 1)" offset="0%"></stop>
                            <stop id="stop2" stop-color="rgba(255, 255, 255, 1)" offset="100%"></stop>
                        </linearGradient>
                    </defs>
                <path fill="url(#sw-gradient)" d="M13.8,-21.4C19.2,-20.7,25.8,-19.7,31,-16.1C36.1,-12.5,39.7,-6.2,40.3,0.3C40.9,6.9,38.4,13.8,33.7,18.2C29,22.5,22,24.2,16,25.9C10,27.6,5,29.2,-1.6,32C-8.3,34.8,-16.5,38.8,-21.5,36.6C-26.5,34.4,-28.3,25.9,-31.9,18.7C-35.5,11.6,-40.9,5.8,-42.8,-1.1C-44.6,-7.9,-43,-15.9,-38.2,-21.1C-33.5,-26.2,-25.7,-28.6,-18.8,-28.4C-11.9,-28.1,-6,-25.3,-0.9,-23.8C4.2,-22.3,8.4,-22,13.8,-21.4Z" width="100%" height="100%" transform="translate(50 50)" stroke-width="0" style="transition: all 0.3s ease 0s;" stroke="url(#sw-gradient)"></path>
              </svg>