<svg id="visual" viewBox="0 0 900 350" width="900" height="350" xmlns="http://www.w3.org/2000/svg" xmlns:xlink="http://www.w3.org/1999/xlink" version="1.1"><rect x="0" y="0" width="900" height="350" fill="#ffffff"></rect><path d="M0 222L129 223L257 151L386 214L514 186L643 225L771 154L900 191L900 351L771 351L643 351L514 351L386 351L257 351L129 351L0 351Z" fill="#d6ffe1"></path><path d="M0 197L129 234L257 188L386 213L514 184L643 216L771 181L900 181L900 351L771 351L643 351L514 351L386 351L257 351L129 351L0 351Z" fill="#d1e6aa"></path><path d="M0 263L129 273L257 266L386 266L514 275L643 250L771 265L900 249L900 351L771 351L643 351L514 351L386 351L257 351L129 351L0 351Z" fill="#dfc777"></path><path d="M0 267L129 276L257 258L386 288L514 279L643 271L771 259L900 289L900 351L771 351L643 351L514 351L386 351L257 351L129 351L0 351Z" fill="#f29f5b"></path><path d="M0 313L129 291L257 312L386 291L514 295L643 293L771 298L900 311L900 351L771 351L643 351L514 351L386 351L257 351L129 351L0 351Z" fill="#ff6f61"></path></svg>